<?xml version="1.0" encoding="UTF-8"?> <svg xmlns="http://www.w3.org/2000/svg" width="88" height="44" viewBox="0 0 88 44" fill="none"><path fill-rule="evenodd" clip-rule="evenodd" d="M72.3926 1.4215C73.0526 1.52463 73.527 1.27713 74.0426 1.4215C74.2145 1.46963 74.2557 1.68963 74.4551 1.76525C74.7851 1.8615 75.012 1.68275 75.3832 1.76525C75.4864 1.8615 75.562 2.01275 75.6857 2.09525C75.9676 2.28775 76.5726 2.37713 76.992 2.604C77.267 2.74838 77.487 3.05775 77.7139 3.11275C78.0164 3.18838 78.3189 3.02338 78.6007 3.11275C78.8345 3.18838 78.8895 3.51838 79.1026 3.6215C79.412 3.6765 79.7557 3.55275 79.9964 3.6215C80.2232 3.69025 80.2026 3.86213 80.3745 3.96525H81.5982C81.7907 3.979 81.7564 4.2265 81.8939 4.30213C82.3339 4.40525 82.7945 4.16463 83.2414 4.30213C83.4476 4.364 83.8601 4.96213 84.0457 5.14775C84.3482 5.42963 84.7332 5.62213 84.9395 5.904C85.1526 6.22025 85.2832 6.70838 85.4414 7.0865C85.7026 7.70525 85.8401 8.28963 86.1976 8.7365C86.232 9.25213 86.1839 9.76088 86.1632 10.2971C86.1357 10.7784 86.0738 11.3628 86.122 11.8096C86.1632 12.2634 86.4795 12.7446 86.5345 13.0471C86.6857 13.7553 86.5895 14.649 86.6239 15.4534C86.6514 16.1753 86.7407 16.9453 86.5826 17.5159C86.4864 17.8459 86.1014 18.224 86.0326 18.6159C85.957 19.049 86.122 19.544 86.1151 19.9634C86.1082 21.0084 85.6682 21.5103 85.1457 22.1634C85.0564 22.6446 85.0839 23.1809 84.9739 23.6759C84.8914 24.0471 84.7332 24.3703 84.7264 24.7759C84.7126 25.2159 84.7814 25.7109 84.8089 26.1715C84.8776 27.4365 84.9807 28.9353 84.8845 30.3103C84.8501 30.874 84.5957 31.3965 84.5476 31.919C84.4789 32.7921 84.6232 33.5415 84.4582 34.3253C84.3895 34.6965 84.2314 35.054 84.1626 35.4253C84.0939 35.8103 84.0457 36.1953 83.9564 36.5596C83.7639 37.2815 83.3995 37.8384 83.0626 38.4159C82.8151 38.4365 82.7189 38.794 82.4782 38.9659C82.107 39.2134 81.2889 39.3509 80.6976 39.5159C80.4157 39.5846 80.1063 39.674 79.8107 39.7634C79.5013 39.8665 79.1782 40.0659 78.9651 40.0659C78.642 40.0659 78.3739 39.7496 78.1195 39.6809C77.5695 40.1278 76.3664 40.2928 75.5001 40.1415C75.4726 39.9559 75.6789 39.784 75.7957 39.6396C76.2059 39.1109 76.4562 38.4759 76.5171 37.8095C76.578 37.1432 76.447 36.4733 76.1395 35.879C76.5864 35.5696 77.2807 35.5009 77.5695 35.0265C77.5764 34.8065 77.2532 34.9234 77.2257 34.7309C77.0401 34.1671 76.7789 33.5621 76.5107 32.9571C76.4282 32.7715 76.2839 32.5721 76.2632 32.4071C76.2151 32.0771 76.3457 31.4034 76.387 30.9703C76.5245 29.6296 76.6964 28.1103 76.8614 26.749C76.5451 26.2678 76.2426 25.7453 76.0089 25.1815C75.7889 24.6453 75.4932 24.0128 75.4176 23.3665C75.3901 23.0778 75.5207 22.7478 75.4589 22.4384C75.4245 22.239 75.177 22.0534 75.122 21.8471C75.0532 21.5584 75.0945 21.0978 75.0807 20.7128C75.0601 20.094 75.012 19.5715 75.0807 18.9734C75.1151 18.8084 74.8745 18.7534 74.8332 18.5953C74.7026 18.1278 75.0051 17.2615 74.957 16.5671C74.9295 16.1134 74.7164 15.694 74.6614 15.3021C74.5445 14.3878 74.6614 13.1709 74.6614 12.174V10.6134C74.6614 10.084 74.572 9.424 74.6614 9.094C74.7232 8.89463 74.8676 8.91525 74.957 8.71588C75.0945 7.83588 74.7714 7.12775 74.957 6.43338C75.0051 6.24775 75.2457 6.1515 75.3007 5.97275C75.3626 5.75963 75.3832 4.694 75.3007 4.40525C75.2457 4.199 74.8607 3.85525 74.6201 3.649C73.857 2.94088 73.0938 2.26713 72.4201 1.53838C72.3959 1.50455 72.386 1.46256 72.3926 1.4215ZM78.4289 10.5859C78.2295 11.2459 78.4014 11.8509 78.4289 12.4834C78.4564 13.1503 78.4426 13.9409 78.4701 14.6765C78.5045 15.4603 78.4014 16.2646 78.5114 16.8765C78.5457 17.0828 78.7107 17.289 78.7589 17.5021C78.8964 18.0728 78.9445 18.719 79.1439 19.1521C79.2126 19.3171 79.3364 19.4065 79.3914 19.5646C79.412 24.5146 79.3226 29.3271 79.3501 34.2703C80.0088 33.5876 80.476 32.7434 80.7045 31.8228C80.8007 31.4378 80.7595 31.0734 80.8351 30.6403C80.9657 29.9253 81.5639 29.2859 81.6807 28.5709C81.777 27.9659 81.6807 27.2234 81.6807 26.5428C81.6807 25.1471 81.7289 23.9234 81.8114 22.6103C81.8526 21.9503 81.8045 21.2353 81.9764 20.7128C82.0795 20.424 82.4026 20.2178 82.5264 19.9084C82.6776 19.544 82.6707 18.9596 82.8289 18.5128C82.9457 18.169 83.2001 17.9146 83.2414 17.6671C83.317 17.3028 83.2414 16.7321 83.2414 16.2303C83.2414 15.749 83.3239 15.144 83.2414 14.7934C83.2139 14.6353 83.0626 14.539 82.9939 14.374C82.7807 13.879 82.7464 13.0815 82.5814 12.724C82.2514 12.064 81.3439 11.9678 81.392 11.1221C80.8695 11.2115 80.7114 10.6065 80.292 10.4896C79.7557 10.3384 79.2126 10.5171 78.477 10.4484C78.422 10.469 78.422 10.524 78.4289 10.5859Z" fill="white"></path><path fill-rule="evenodd" clip-rule="evenodd" d="M69.3061 16.2042C69.3405 16.548 69.4092 16.988 69.1755 17.1667C70.0005 16.988 70.4267 17.1323 70.9561 17.6411C71.0523 17.7305 71.1555 17.9161 71.293 18.0536C71.4511 18.2255 71.6161 18.2736 71.6711 18.3973C71.7673 18.6036 71.6986 18.913 71.7536 19.078C71.8773 19.2773 72.2073 19.2773 72.3861 19.4148C72.4892 19.8755 72.5442 20.3842 72.6817 20.893C72.7161 21.0305 72.8192 21.168 72.8536 21.3123C73.0323 22.1786 72.8467 23.1548 72.9773 24.0142C73.0392 24.4336 73.2523 24.7911 73.273 25.1967C73.383 25.4167 73.6167 25.073 73.6923 25.2792C73.9673 26.778 74.4898 28.5655 74.0705 30.1398C74.1048 30.3323 74.428 30.2361 74.4898 30.3873C74.6823 30.7105 74.8061 31.0955 74.9161 31.4873C74.8955 31.6317 74.758 31.7967 74.7442 31.948C74.7236 32.1542 74.8473 32.4086 74.8748 32.663C74.8955 32.9723 74.868 33.3298 74.8336 33.6323C74.7992 33.9692 74.6892 34.2923 74.703 34.5261C74.7236 34.7117 74.8542 34.8973 74.8748 35.0761C74.9092 35.4542 74.703 35.8805 74.6205 36.3411C74.3867 37.5786 74.1942 38.8848 73.9055 40.0536C73.4242 39.8336 72.9842 39.7992 72.5992 39.5861C72.2211 39.3798 71.8842 38.9605 71.5405 38.658C70.8736 38.0736 70.3373 37.5786 68.9623 37.6405C68.9073 37.063 69.1755 36.4855 69.3817 35.9148C69.5742 35.3717 69.7736 34.8286 69.9317 34.2236C70.2205 33.0892 70.2342 31.4323 70.138 30.0023C70.083 29.1223 69.8767 28.1255 69.6773 27.2523C69.4711 26.3586 69.2442 25.4511 68.8661 24.8461C68.7561 24.6673 68.6323 24.5023 68.4055 24.4336C68.4055 23.5742 68.8317 22.8798 68.7011 22.1098C68.6667 21.8898 68.4605 21.5598 68.323 21.3055C67.938 20.618 67.4017 19.7448 66.8448 19.2773C66.9136 19.8755 66.728 20.2467 66.5011 20.7211C66.3842 20.9617 66.2055 21.2573 66.1642 21.4773C66.068 22.048 66.2673 22.8248 66.3361 23.5398C66.4598 24.9011 66.5973 26.2005 66.7486 27.5961C66.8311 28.2836 67.0442 29.0398 66.9686 29.583C66.9342 29.7755 66.783 29.9061 66.7555 30.0917C66.8311 30.3667 67.0098 30.4836 67.0511 30.848C67.1198 31.5217 67.1473 32.5392 67.0098 33.2542C66.9686 33.4811 66.8173 33.7011 66.8036 33.9348C66.7623 34.4436 66.948 35.0348 67.0098 35.5848C67.0442 35.8461 67.0717 36.1486 67.0923 36.4236C67.1473 37.008 67.2298 37.5236 66.7967 37.7298C66.9686 38.8367 66.6523 39.813 66.5011 40.7273C66.2605 40.4867 66.2467 40.1223 66.1161 39.8405C65.4898 38.4742 64.5329 37.2857 63.3317 36.3823C62.8573 36.0317 62.273 35.798 61.9361 35.2823C62.3142 34.0655 62.6648 32.5117 63.2011 31.3498C63.318 31.1161 63.538 30.9167 63.5861 30.6761C63.6961 30.1398 63.538 29.528 63.2011 29.2323V24.9698C63.2011 23.5055 63.318 22.048 63.2011 20.7073C63.1805 20.398 63.0498 20.1092 62.9948 19.7792C62.933 19.4355 62.9742 19.0436 62.9123 18.7273C62.8573 18.4523 62.6236 18.198 62.5686 17.9161C62.5136 17.6205 62.603 17.2973 62.5686 16.988C62.5411 16.603 62.3761 16.2317 62.3211 15.8536C62.2867 15.6198 62.3211 15.3861 62.2798 15.173C62.2317 14.953 62.108 14.7605 62.0736 14.5405C62.0392 14.348 62.0461 14.1486 62.0323 13.9492C62.0117 13.7705 61.9636 13.578 61.943 13.3992C61.8948 12.9523 62.0461 12.4573 61.943 12.0036C61.888 11.7423 61.558 11.6048 61.5992 11.2473C61.558 11.0961 61.3655 11.0961 61.3036 10.9517C61.2393 9.96735 61.2393 8.97984 61.3036 7.99547C62.3073 7.17734 63.4692 6.52422 64.2186 5.46547C63.9986 5.29359 63.6273 5.27297 63.3317 5.16984C63.1667 5.19734 63.0842 5.36922 62.9123 5.42422C62.7267 5.47922 62.5548 5.47922 62.3211 5.42422C61.9567 4.08359 60.843 3.50609 59.8667 2.74984C59.6811 2.73609 59.4542 2.68109 59.2411 2.63297C59.0898 2.59172 58.7461 2.62609 58.7805 2.37859C58.7805 2.15859 59.1655 2.25484 59.3648 2.24797C59.7155 2.24797 60.0523 2.23422 60.3823 2.20672C61.3036 2.14484 62.3761 2.27547 63.1667 2.16547C63.4761 2.12422 63.7236 1.91797 64.0192 1.91797C64.3355 1.91797 64.5211 2.08984 64.693 2.26172C65.1398 2.31672 65.6761 2.17922 66.1711 2.26172C66.5836 2.31672 67.0511 2.53672 67.4773 2.67422C67.9036 2.81172 68.323 3.03859 68.7492 3.09359C69.0655 3.14172 69.3886 3.06609 69.6773 3.13484C70.6123 3.36859 71.0042 4.20047 71.7398 4.53047C72.0561 5.35547 72.5305 6.20109 72.9292 7.02609C73.2111 7.62422 73.3898 7.99547 73.3486 8.97172C73.3348 9.24672 73.3486 9.59047 73.3073 9.81734C73.2523 10.1267 73.0186 10.3536 72.9636 10.663C72.8948 11.1236 73.0186 11.5498 72.9636 12.0173C72.8005 12.8674 72.4886 13.682 72.0423 14.4236C71.4373 15.4411 70.6673 16.1148 69.3061 16.1973V16.2042ZM66.2742 6.44859C66.3155 9.26734 66.2123 12.2648 66.2742 15.0217C66.2742 15.1661 66.1986 15.4136 66.3498 15.5305C66.6898 15.6025 67.0434 15.5738 67.3673 15.448C68.3298 15.0905 68.4467 14.2517 68.8111 13.248C68.8798 13.0417 69.0311 12.8355 69.0655 12.6636C69.1067 12.3611 69.0242 12.0586 69.1067 11.7698C69.1548 11.5773 69.3611 11.3505 69.4023 11.1373C69.4917 10.6561 69.4573 9.87234 69.2717 9.36359C69.0723 8.82734 68.4398 8.09172 68.048 7.63797C67.553 7.05359 66.9548 6.36609 66.3567 6.33172C66.3017 6.33859 66.2742 6.37297 66.2742 6.44859ZM18.163 2.35109C18.4105 2.57797 18.5617 2.90797 18.878 3.06609C19.0636 3.05922 19.208 2.99734 19.428 3.02484C19.923 3.58172 20.4042 4.16609 20.9542 4.67484V6.18734C20.9542 6.69609 21.0505 7.30109 20.9542 7.67234C20.8923 7.87859 20.6242 7.99547 20.6105 8.18109C20.5898 8.59359 21.1192 8.70359 21.2498 8.93734C21.1811 9.36359 21.353 9.92047 21.2498 10.2917C21.1811 10.5186 21.0023 10.5117 20.9611 10.7111V15.613C20.9611 16.1423 20.8236 16.8161 20.9611 17.2217C21.0298 17.4623 21.4561 17.6205 21.5455 17.8061C21.6417 17.9917 21.6967 18.5073 21.7173 18.8648C21.8136 20.4667 21.7036 22.1373 21.6348 23.6773C21.6073 24.0486 21.6073 24.4473 21.5386 24.6536C21.4767 24.8255 21.2773 24.9423 21.2361 25.073C21.0505 25.7261 21.3736 26.5855 21.2361 27.1905C21.2567 27.383 21.5111 27.3417 21.5386 27.5273C21.6211 28.0567 21.5867 28.8061 21.5386 29.3423C21.4148 29.528 21.2361 29.5073 21.1192 29.6861C21.0642 29.7548 20.9405 30.023 20.9473 30.1398C20.9611 30.4492 21.3667 30.5798 21.2361 31.1573C21.1948 31.3361 21.1261 31.3773 20.9473 31.5767C20.8511 31.9823 21.0642 32.443 20.9473 32.883C20.9061 33.048 20.6586 33.1855 20.6036 33.3573C20.4592 33.8592 20.7548 34.7117 20.6036 35.2961C20.5623 35.4886 20.3286 35.5986 20.3148 35.8461C20.2942 36.1555 20.7411 36.4373 20.6105 36.8636C20.9886 36.8842 21.3736 36.9323 21.793 36.9461C22.1573 36.9598 22.6455 37.0355 22.9755 36.9048C23.1748 36.8292 23.2092 36.6161 23.3536 36.4855C23.5117 36.348 23.8417 36.1348 24.0273 36.1073C24.3367 36.0592 24.7836 36.2105 25.1686 36.3136C25.9386 36.5198 27.1555 36.7673 27.953 36.3136C28.1455 36.2036 28.173 36.0386 28.4136 35.9355C28.8605 35.7567 29.6992 35.7567 30.3592 35.7292C33.123 35.6055 36.3542 35.7361 39.1936 35.7636V37.7573C39.1936 38.3967 39.0905 39.1323 39.1936 39.6961C39.2967 40.2667 39.7711 40.6586 39.9086 41.0917H36.698C36.3267 41.0917 35.873 41.1605 35.6392 41.0917C35.4467 41.0367 35.4192 40.8442 35.2611 40.748C34.6561 40.7823 34.1817 40.7961 33.9961 40.418C33.4942 40.5005 33.3773 40.2117 33.1023 40.0742H31.5417C30.5998 40.0742 29.7473 40.2255 29.4792 39.6617C26.8942 39.593 24.2542 39.5723 21.6211 39.5655C21.3426 39.3344 21.0158 39.1688 20.6648 39.0807C20.3138 38.9927 19.9476 38.9845 19.593 39.0567C19.3386 39.1117 19.043 39.3936 18.7473 39.6067C18.4517 39.813 18.1492 40.0192 17.943 40.198C17.7367 40.3836 17.5992 40.6586 17.4342 40.7892C16.5955 40.6448 15.303 40.418 14.5605 40.7892C14.3336 40.7067 14.313 40.4248 14.0586 40.3698C14.1617 40.0948 14.4161 39.9711 14.4367 39.6136C15.1754 39.265 15.8478 38.7904 16.4236 38.2111C16.4923 37.7986 16.3273 37.2486 16.4236 36.9048C16.4923 36.6505 16.6986 36.6505 16.7605 36.4373C16.7605 36.1692 16.4648 36.1967 16.4167 35.9767C16.5542 35.083 16.2311 34.313 16.4167 33.6117C16.4717 33.433 16.7055 33.3161 16.7605 33.1511C16.8498 32.828 16.6711 32.5186 16.7605 32.223C16.8155 32.0373 16.9873 32.0167 17.0561 31.8448C17.1523 31.1573 16.6986 31.0198 16.4236 30.7036V26.5236C16.4855 26.3586 16.7123 26.3655 16.7605 26.1798C16.7123 25.5886 16.5405 24.5711 16.7605 23.9867C16.8292 23.7805 16.9736 23.7323 17.0561 23.5673V21.9586C17.0561 21.443 16.953 20.8173 17.0561 20.3567C17.1386 20.0061 17.4823 19.8205 17.4755 19.463C17.4755 19.1055 17.1936 18.913 17.063 18.7067V15.283C17.063 14.8842 17.1317 14.4167 17.063 14.1486C17.008 13.9423 16.8567 13.8942 16.7605 13.7223V12.4917C16.7605 12.0792 16.6642 11.5636 16.7605 11.268C16.8636 10.9242 17.2898 10.8898 17.393 10.5873C17.3517 9.79672 17.7367 8.30484 17.008 8.09859C17.228 7.67922 17.558 7.19797 17.5992 6.62047C17.668 5.88484 17.2555 5.17672 17.008 4.63359C16.7536 4.53734 16.3961 4.56484 16.1692 4.54422C15.9561 4.02172 15.6192 3.65734 15.1517 3.27922C15.0142 3.16922 14.533 2.83922 14.5261 2.77047C14.5055 2.66734 14.863 2.41297 14.9042 2.13797C14.9042 2.08297 14.8836 2.01422 14.9455 2.01422H15.413C15.6123 2.03484 15.5642 2.30984 15.7498 2.35109H18.1561H18.163Z" fill="white"></path><path fill-rule="evenodd" clip-rule="evenodd" d="M57.653 41.2493C57.598 40.4931 57.7218 39.9018 57.653 39.3037C57.5843 38.7812 57.3368 38.2724 57.1855 37.7912L56.9312 37.0281C56.8624 36.7874 56.7524 36.4987 56.7249 36.2718C56.6768 35.9556 56.8005 35.5293 56.7249 35.1718C56.5874 34.5737 55.6043 34.0718 55.3293 33.4324C55.2537 33.2674 55.123 32.9237 55.1574 32.6762C55.1918 32.4287 55.7212 31.8512 55.8724 31.6174C56.3743 30.8474 56.7043 30.2424 56.9724 29.2524C57.0962 28.8056 57.2749 28.1524 57.1787 27.7399C57.1099 27.4237 56.6287 27.1487 56.2987 26.9356C55.5424 26.4474 54.8824 26.1381 54.1399 25.7118C53.7962 25.5056 53.4387 25.1618 52.9162 25.2443C53.1912 25.8493 53.1912 26.7362 53.1637 27.6506C53.3149 27.7881 53.528 27.9118 53.7137 28.0631C53.8924 28.2212 54.0574 28.3587 54.2637 28.4893C54.1674 28.9293 53.8237 29.1218 53.7137 29.5481C52.8199 29.5618 51.9812 29.3968 51.1768 29.5068C50.5993 29.5893 50.0287 29.9056 49.4924 30.0981C48.9012 30.3043 48.3443 30.4831 47.808 30.6824C47.423 30.4831 47.533 29.7956 47.2168 29.5481C47.3818 29.3074 47.533 29.0187 47.7668 28.7437C47.973 28.5099 48.3099 28.3449 48.3993 28.0699C48.4887 27.8087 48.4199 27.5406 48.4818 27.3137C48.6605 26.7018 49.0868 26.5162 49.623 26.1724C49.623 25.9456 49.2174 25.9456 49.3205 25.7531C49.2655 25.1687 49.5749 24.5706 49.5749 23.9312C49.5749 23.5049 49.3824 23.1543 49.4443 22.7968C49.4993 22.5149 49.7193 22.3362 49.9049 22.1643C49.9737 21.7449 49.8155 21.2843 49.9049 20.9406C49.9737 20.6999 50.2349 20.6587 50.2487 20.4318C50.1249 20.2256 49.9668 20.2256 49.9049 20.0124C49.8362 19.7099 49.9874 19.3937 49.9874 19.1599C49.9874 18.5962 49.8224 18.1493 50.0287 17.6887C50.1524 17.4137 50.3999 17.2006 50.5374 16.9324C50.8124 16.3824 50.8537 15.8256 50.9155 15.1106C51.0255 14.9456 51.2318 14.7943 51.2937 14.6499C51.5137 14.1549 51.4518 13.3024 51.5962 12.5874C51.7199 11.9343 51.9537 11.3293 52.2287 10.8549C52.3662 10.6074 52.6137 10.4012 52.6412 10.2224C52.6962 9.91307 52.5105 9.67244 52.5587 9.42494C52.6068 9.19119 52.8062 9.05369 52.978 8.91619C53.2393 8.15994 53.4249 7.44494 53.8237 6.75744C53.9405 6.55807 54.1949 6.39994 54.243 6.20744C54.353 5.82244 54.1468 5.43057 54.243 5.03182C54.3049 4.85994 54.628 4.41994 54.7793 4.29619C54.9443 4.15869 55.178 4.15182 55.288 3.99369C55.4049 3.30619 55.233 1.65619 56.388 2.17869C56.9587 2.43994 56.8899 3.25807 57.0618 3.91119C57.1512 4.28932 57.3918 4.65369 57.5705 4.96307C57.763 5.31369 58.1343 5.63682 58.203 5.89119C58.2855 6.23494 58.1687 6.63369 58.203 6.99119C58.2924 8.20119 58.9593 9.46619 59.3374 10.6281C59.5437 11.2674 59.6537 11.9274 59.798 12.5256C59.8737 12.8281 59.9768 13.1306 60.0524 13.4537C60.1212 13.7699 60.1418 14.1549 60.2587 14.4162C60.3412 14.6156 60.5749 14.7324 60.6437 14.8906C60.6987 15.3237 60.568 15.7156 60.6437 16.0662C60.6849 16.2587 60.9324 16.4099 60.9805 16.6162C61.008 16.7537 60.898 16.9462 60.9393 17.0837C60.9943 17.2762 61.228 17.3449 61.283 17.5031C61.228 17.9637 61.3449 18.5756 61.283 19.1118C61.2624 19.2356 61.2005 19.3731 61.1937 19.4899C61.1455 20.3081 61.3655 21.3049 61.4962 22.1024C61.5718 22.6318 61.6749 23.1337 61.7024 23.8349C61.778 25.5537 61.7712 27.6643 61.7024 29.1974C61.6887 29.5412 61.7024 30.0499 61.613 30.3318C61.5443 30.5999 61.3174 30.9162 61.2005 31.2599C60.8568 32.1881 60.6024 33.3293 60.0112 34.0512C59.9287 34.6631 60.1212 35.1787 60.0112 35.7012C59.9699 35.8937 59.7843 36.0724 59.7155 36.2443C59.4818 36.8424 59.4612 37.5506 59.083 38.0181C59.0143 38.3412 59.1724 38.6712 59.083 38.9874C59.0418 39.1387 58.8287 39.2624 58.7874 39.4068C58.6637 39.8193 58.8974 40.2868 58.7874 40.6787C58.7324 40.8849 58.4849 41.0362 58.3199 41.1393C58.0587 41.2081 57.9212 41.1049 57.653 41.2493ZM55.1162 16.2518C54.7862 16.6024 54.7243 17.2143 54.4012 17.4756C54.3462 17.5168 54.1743 17.5306 54.188 17.6818C54.0987 18.0462 54.1605 18.3968 54.1055 18.7818C54.0574 19.1049 53.8993 19.4074 53.858 19.7099C53.7205 20.6656 54.0437 21.5524 53.858 22.5424C55.0062 22.4462 55.6387 22.6799 56.2643 23.0512C56.6493 23.2781 57.0343 23.6012 57.5705 23.6424C57.6187 22.4187 57.6668 20.9474 57.6118 19.6687C57.598 19.4418 57.6462 19.1737 57.6118 18.9537C57.5912 18.8368 57.4812 18.6581 57.4399 18.4931C57.2543 17.7368 57.3505 16.7193 56.8899 16.4237C56.498 16.1693 56.0787 16.2724 55.7899 16.0456C55.4599 15.7706 55.453 15.4681 55.1643 14.9868C55.178 15.4406 55.0818 15.7774 55.1162 16.2518Z" fill="white"></path><path fill-rule="evenodd" clip-rule="evenodd" d="M53.0062 2.86187C53.0819 3.185 52.8481 3.41188 52.7519 3.65938C52.4425 4.40187 52.2225 5.10312 51.6931 5.64625C51.7481 6.23062 51.7619 6.74625 51.4869 7.21375C51.2944 7.52312 50.8337 7.73625 50.765 8.01812C50.71 8.26562 50.8338 8.54062 50.8063 8.77437C50.7513 9.26937 50.4419 9.35187 50.1325 9.7025C49.9812 10.6031 49.94 11.6481 49.6238 12.4937C49.5069 12.81 49.28 13.0644 49.2388 13.4562C49.225 13.635 49.28 13.7931 49.28 13.965C49.2869 14.5081 49.225 15.0719 49.2044 15.615C49.1837 16.0412 49.28 16.5225 49.1631 16.9212C49.115 17.0656 48.9706 17.1619 48.9087 17.2994C48.7231 17.7119 48.6681 18.2756 48.5306 18.7431C48.4246 19.1891 48.2228 19.6066 47.9394 19.9669V21.0669C47.7331 21.5894 47.1212 21.8231 47.0112 22.3731C46.9012 22.8956 47.0112 23.5694 47.0112 24.1469C47.0112 24.7244 47.0869 25.35 47.0112 25.9206C46.9562 26.3606 46.695 26.8212 46.5437 27.2681C46.3787 27.7562 46.1312 28.2512 46.0762 28.6225C45.9937 29.1725 46.1244 29.7156 46.0762 30.1831C45.98 31.2694 45.4369 31.9912 44.935 32.8506C44.9556 33.655 44.4812 34.1912 44.4331 34.7962C44.7081 35.0369 44.6875 34.5212 44.935 34.4937C45.4025 34.8581 46.0694 34.4937 46.7156 34.535C46.9425 34.1912 46.8394 33.7856 47.0525 33.4762C47.3825 32.995 48.0906 32.94 48.6612 32.72C48.9362 32.61 49.2525 32.3487 49.6238 32.17C50.4694 31.7781 51.26 31.5375 51.5694 30.6437C51.8444 30.7537 51.8237 30.9944 52.0781 31.07C52.4906 31.1869 53.1231 30.9325 53.5219 31.07C53.7006 31.125 54.1062 31.6612 54.1062 31.9569C54.1062 32.1631 53.8587 32.39 53.8106 32.6306C53.7812 32.8266 53.7812 33.0259 53.8106 33.2219C53.8519 33.4625 54.0512 33.6137 54.1062 33.9025C54.1819 34.3081 54.1062 34.8375 54.1062 35.3737C54.1062 35.9031 54.2025 36.4737 54.1062 36.8175C54.0512 37.0237 53.6662 37.2094 53.7625 37.4912H49.1219C48.9294 37.4569 48.9844 37.1887 48.785 37.1475C48.2625 37.1475 47.8088 36.9069 47.3894 36.9825C47.0044 37.0512 46.6331 37.6562 46.2138 37.7387C45.2306 37.8625 44.3781 37.6837 43.505 37.8212C42.8794 37.9312 42.3156 38.4675 41.6488 38.4125C41.3188 38.11 41.3256 37.7594 41.3531 37.065C41.3669 36.6525 41.2844 36.1506 41.3531 35.8825C41.4219 35.6144 41.7312 35.4906 41.7725 35.2912C41.8412 34.9544 41.69 34.6656 41.6419 34.4869C41.7794 34.2119 42.1919 34.1706 42.3225 33.8131C42.4256 33.5175 42.3637 33.1737 42.2812 32.7956C42.3981 32.5825 42.6456 32.5344 42.7006 32.2869C42.7625 32.0187 42.5975 31.7506 42.6181 31.4894C42.6456 31.2144 42.8381 31.0081 42.9206 30.7675C43.0031 30.4856 43.0375 30.1212 43.0444 29.7912C43.0444 29.3787 43.0513 28.8494 42.9206 28.3544C42.8588 28.1481 42.6525 27.9625 42.5769 27.77C42.2606 26.9794 42.2881 25.9825 42.3294 25.1575C42.3775 24.2087 42.3706 23.3012 42.5769 22.49C42.6869 22.0775 42.8862 21.6375 43.0375 21.2181C43.4912 20.0425 44.0275 18.7431 44.4331 17.5469C44.4194 17.3062 44.165 17.2856 44.1375 16.9556C44.11 16.6187 44.4331 16.3919 44.5569 16.0275C44.6737 15.7044 44.5913 15.3606 44.6394 15.0994C44.7013 14.7969 44.9419 14.4806 45.1069 14.1712C45.2925 13.8069 45.5194 13.4494 45.5675 12.9956C45.6087 12.6794 45.5194 12.3356 45.5675 11.9781C45.6225 11.6 45.87 11.2081 46.0281 10.8369C46.4406 9.94312 46.8188 9.05625 47.4238 8.26562C47.5613 8.08 47.7263 7.98375 47.7675 7.83937C47.85 7.51625 47.7125 7.2 47.7675 6.9525C47.8225 6.69812 47.9944 6.705 48.0631 6.44375C47.63 6.00375 46.8737 6.46437 46.3306 6.27875C46.0625 6.1825 46.0213 5.84562 45.8288 5.77C45.5813 5.66687 45.2719 5.73562 45.0725 5.77C44.8525 5.81125 44.5362 5.85937 44.385 5.935C43.89 6.21 43.6013 7.54375 43.4638 8.26562C43.2919 9.13187 43.2162 10.3831 42.6594 10.6719C42.2469 10.8781 41.8825 10.5825 41.7725 11.1325C41.525 11.0087 41.3806 10.7887 41.1813 10.6237C41.2363 10.3762 41.3394 10.225 41.3531 9.94312C41.3669 9.59937 41.1606 9.25562 41.1813 8.96687C41.2088 8.685 41.5731 8.47187 41.6488 8.21062C41.745 7.86687 41.6488 7.29625 41.6488 6.76687V2.50438C41.6763 2.47 41.7244 2.4425 41.7794 2.42188H52.3394C52.4975 2.49062 52.5456 2.66938 52.635 2.8C52.7312 2.7725 52.9512 2.73812 53.0062 2.86187ZM22.0481 2.86187C23.8425 3.06812 26.2212 3.13 28.0019 2.86187C28.3181 3.13687 28.6481 3.39812 28.5519 4.08562C27.9056 4.29187 26.785 4.86937 26.8606 5.73562C26.895 6.045 27.2181 6.2375 27.2044 6.6225C27.1837 7.02125 26.8194 7.10375 26.7369 7.42687C26.6337 7.78437 26.7506 8.54063 26.7781 9.1525C26.8606 11.0775 26.9362 13.2431 26.8194 15.2437C26.7987 15.5944 26.7094 15.945 26.7369 16.2062C26.7437 16.33 26.8331 16.4675 26.8606 16.5912C26.9844 17.1275 27.0944 17.65 27.2044 18.1931C26.95 18.475 26.6681 18.5987 26.6131 19.0456C26.5444 19.5062 26.6819 20.7437 26.7438 21.3281C26.7644 21.555 26.7506 21.775 26.785 21.9537C26.8056 22.1119 26.895 22.2356 26.9087 22.38C26.95 22.6894 26.95 23.2462 26.8675 23.48C26.7781 23.7344 26.3381 23.9612 26.2763 24.2362C26.2213 24.4906 26.3588 24.9031 26.4481 25.2881C26.5238 25.6456 26.5237 26.0237 26.5787 26.3469C26.6131 26.5737 26.7162 26.7731 26.785 26.9794C26.8537 27.1719 27.0119 27.3919 27.0394 27.5706C27.0875 27.8594 26.9775 28.3269 26.95 28.705C26.9225 29.0762 26.9775 29.5162 26.8675 29.805C26.7988 30.0044 26.4344 30.2106 26.4069 30.4444C26.3587 30.7537 26.6131 31.5856 26.7506 31.7919C26.9431 32.115 27.4038 32.2456 27.7613 32.4656C28.1738 32.7269 28.49 32.9675 28.7306 33.1462C28.7994 33.5175 28.82 33.93 28.9025 34.2875C28.5038 34.1362 27.7338 33.9919 27.3831 34.2875C26.7988 34.0537 26.0081 34.095 25.1488 34.15C24.6469 34.1912 24.1381 34.1912 23.7944 34.3287C23.4644 34.4525 23.2375 34.8994 22.99 34.9131C22.6325 34.9475 22.4331 34.5006 22.275 34.3631C22.7425 33.8062 23.1 33.1325 23.7875 32.8025C23.9731 31.9775 23.9662 30.7744 24.0006 29.64C24.0144 29.2619 23.9731 28.8356 24.0419 28.5812C24.1038 28.3612 24.3169 28.2787 24.3375 28.0725C24.3788 27.7494 24.1106 27.5431 24.0419 27.1787C23.9974 26.8125 24.0254 26.4411 24.1244 26.0856C24.1863 25.8862 24.3788 25.7144 24.42 25.4944C24.5163 25.0131 24.42 24.2225 24.42 23.4662C24.42 20.29 24.3375 16.9212 24.3375 13.8825C24.3375 13.3462 24.2344 12.6862 24.3375 12.315C24.3994 12.1156 24.4338 12.1362 24.64 11.9712C24.6331 11.7994 24.3788 11.8681 24.3375 11.7237C24.2206 9.95687 24.0969 7.68812 24.0006 5.72875C23.9869 5.43312 23.9869 5.11 23.9112 4.92437C23.705 4.34687 22.825 4.62187 22.605 4.03062C22.44 4.0375 22.2956 4.03062 22.1856 3.99625C22.0206 3.79 21.8281 3.61813 21.6356 3.44625C21.7387 3.22625 21.89 3.04062 22.0481 2.86187ZM30.2362 2.82062C33.3575 2.69 36.5338 2.86187 39.6963 2.82062C39.7856 3.34312 39.5863 4.01687 39.6963 4.59437C39.7375 4.80062 39.9575 5.00687 39.9988 5.18562C40.0881 5.59812 39.9988 6.17562 39.9988 6.66375V10.9744C39.9163 11.1462 39.7444 11.2425 39.655 11.4831C39.4969 11.9231 39.5656 12.5281 39.6963 12.9544C38.665 13.91 38.4519 15.6769 37.7163 16.9281V18.365C36.795 18.7844 35.6675 19.355 36.1488 20.9775C36.08 21.1631 35.8325 21.2181 35.6813 21.3625C35.1725 21.8644 34.705 22.93 34.375 23.6862C34.1894 24.085 34.0312 24.5525 33.8662 24.9925C33.6944 25.4531 33.4538 25.9137 33.4056 26.34C33.3713 26.5944 33.4538 26.89 33.4056 27.1444C33.3506 27.4606 33.0687 27.9625 32.945 28.32C32.5806 29.3444 32.2506 30.355 31.8037 31.3244C31.7281 31.4894 31.5837 31.6887 31.6319 31.8744C32.0031 32.1906 32.4088 31.8744 32.7319 31.7025C33.0413 31.5375 33.4194 31.2625 33.7081 31.1937C33.9831 31.1387 34.2238 31.1662 34.4644 31.1112C34.6844 31.0631 34.9112 31.0425 35.0969 30.905C35.3719 30.7125 35.5094 30.3206 35.7294 29.9769C36.2106 29.2275 36.7813 28.3819 37.84 28.2031C37.9569 27.6187 38.1562 27.1169 38.5206 26.7594C38.665 26.8419 38.665 27.0687 38.8162 27.1444C39.5244 26.9587 39.4763 26.0306 39.875 25.5356H40.8031C40.7069 26.1819 40.7825 27.0137 40.975 27.5225C40.8787 27.6944 40.6725 27.66 40.5556 27.8181C40.5075 27.8869 40.4594 28.0931 40.3838 28.2375C40.2806 28.4437 40.1569 28.5675 40.1294 28.7875C39.9712 30.0319 40.2325 32.0462 40.2119 33.3525C39.5931 33.4006 39.1944 33.6825 38.8575 34.0262H35.3925C35.1862 33.9987 35.2275 33.71 35.0556 33.6481C34.7875 33.7444 34.6638 33.6344 34.4644 33.6894C34.0519 33.8062 33.9556 34.3081 33.6188 34.37C33.1719 34.4319 32.7937 34.0537 32.395 33.8612H30.0713C29.8994 33.6756 29.6519 33.5175 29.6519 33.27C29.6519 32.9675 29.9544 32.8369 30.1194 32.6375C30.2294 31.95 29.9613 31.3037 30.1194 30.74C30.1606 30.5612 30.3875 30.4444 30.415 30.2794C30.4838 29.8256 30.0025 29.2 29.7344 28.9731C29.8719 28.7531 30.0369 28.5812 30.0369 28.2925C30.0369 28.045 29.8306 27.8319 29.7756 27.6187C29.6381 26.9381 29.8375 26.175 29.9475 25.5494C30.0163 25.1437 30.0438 24.69 30.1194 24.4081C30.1606 24.2362 30.3119 24.0712 30.3669 23.8994C30.5181 23.4319 30.47 22.9162 30.6213 22.5037C30.8894 21.7612 31.4875 21.28 31.845 20.73C32.0078 19.725 32.4786 18.7953 33.1925 18.0694C33.3575 17.1069 33.6325 15.9725 33.9488 15.0237C34.1963 14.3019 34.4713 13.9237 35.09 13.5869C35.3238 12.8375 35.9012 12.425 36.3619 11.9025C36.1969 11.2287 36.08 10.4862 36.3619 9.95687C36.4787 9.73687 36.7056 9.64062 36.8706 9.44812C37.4481 8.74687 37.9156 7.77062 38.555 7.24812V5.18562C37.9225 5.20625 37.3175 5.165 36.6988 5.14437C36.2381 5.12375 35.64 5.04812 35.2206 5.14437C35.0419 5.17875 34.5813 5.44687 34.375 5.56375C34.004 5.74607 33.6989 6.03918 33.5018 6.40253C33.3048 6.76588 33.2255 7.1815 33.275 7.59187C32.6563 7.63312 32.2713 7.915 32.01 8.30687C31.9 9.235 32.1544 10.1975 32.01 11.0156C31.9688 11.2562 31.7831 11.4831 31.6663 11.6894C31.5356 11.9094 31.4187 12.15 31.2537 12.2806C31.0131 12.1156 30.7725 11.765 30.91 11.3525C30.855 11.1462 30.6487 11.105 30.5662 10.9331C30.4975 10.3969 30.4081 9.66125 30.2706 9.32438C30.4219 8.74 30.7244 7.88062 30.4838 7.26187C30.36 6.93875 30.14 6.84937 29.9338 6.6225C30.0575 5.69437 29.7688 4.62875 29.9338 3.79687C30.0025 3.45312 30.3463 3.24 30.2775 2.90312C30.2913 2.855 30.2775 2.8275 30.2362 2.82062ZM11.4056 15.1544C11.6119 15.4362 11.825 15.5394 12.1619 15.6631C12.43 15.7525 12.9869 15.7662 13.1313 15.9587C13.5781 16.5294 12.6225 17.1481 12.925 17.5675C13.0694 17.7737 13.0762 17.5331 13.2687 17.6087C13.6331 17.9112 13.805 18.42 14.19 18.7087C13.9906 19.74 13.6537 21.3762 14.1487 22.3387C14.3344 22.6894 14.6644 22.765 14.8294 23.095C14.3687 24.9031 15.3381 27.4881 14.6987 29.0075C14.6094 29.2137 14.355 29.42 14.3206 29.6331C14.2794 29.9012 14.4031 30.3137 14.4513 30.6025C14.5973 31.2745 14.5689 31.9727 14.3687 32.6306C14.2656 32.94 14.1625 33.3044 14.025 33.5587C13.7362 34.1362 13.2825 34.59 13.0625 35.2087C12.8081 35.8756 12.76 36.5562 12.6362 37.4087C11.7494 37.78 10.9038 38.275 10.1406 38.8387C9.71437 39.1619 9.31563 39.43 9.08875 39.9387C8.2225 40.09 7.23938 40.1244 6.6825 40.5712C6.35938 40.5919 6.2975 40.1244 5.96063 40.1037C5.64438 40.0831 5.48625 40.5437 5.20438 40.6537C4.96375 40.7362 4.57875 40.7294 4.31062 40.7294C3.71937 40.7294 3.07313 40.6262 2.5025 40.5231C2.1725 40.7294 1.7325 40.5025 1.27188 40.5231C1.24438 40.5231 1.08625 40.5025 1.0175 40.5231C0.955625 40.5369 0.886875 40.6469 0.886875 40.6537C0.715 40.6194 0.336875 40.1175 0.254375 40.0625C0.64625 39.8769 1.09312 39.7462 1.39562 39.4712C1.58812 38.5294 1.97312 37.67 2.07625 36.7212C2.11062 36.3431 2.05562 35.9375 2.07625 35.5387C2.11062 34.7069 2.19313 33.8337 2.2 33.0087C2.20688 31.51 1.91125 30.0181 1.82188 28.485C1.71188 26.4912 1.98 24.4975 1.90437 22.4487C1.97312 22.2631 2.2825 22.325 2.37188 22.1462C2.31 21.6169 2.42688 21.115 2.33063 20.5856C2.29625 20.3862 2.11062 20.235 2.07625 20.0356C1.98 19.5819 2.09 18.9081 2.11062 18.3444C2.12437 18.1037 2.07625 17.8356 2.11062 17.6294C2.15187 17.3887 2.3925 17.1825 2.45437 16.9144C2.59187 16.2681 2.40625 15.7594 2.07625 15.3056V9.39312C2.07625 8.76062 1.93875 7.95625 2.07625 7.4475C2.13812 7.22062 2.28937 7.2275 2.41312 7.035C2.31687 6.6775 2.46813 6.4025 2.33063 6.23062C2.12438 5.99 1.98 6.25812 1.60875 6.155C1.47125 6.07937 1.54688 5.92812 1.47125 5.81125C1.24438 5.43312 0.694375 5.165 0.378125 4.80062C0.23375 4.63562 0.165 4.45 0 4.29875C0.09625 4.0375 -0.020625 3.74875 0.04125 3.5425C0.11 3.30188 0.336875 3.185 0.419375 3.02688C0.873125 2.97875 1.43 3.09563 1.93875 3.02688C2.24125 2.98563 2.52312 2.86875 2.8325 2.82062C4.62 2.525 6.82 2.7175 8.82062 2.55938C9.54937 2.51125 10.2437 2.50437 10.9381 2.64875C11.11 2.73125 11.0894 2.93062 11.1925 3.06812C11.3575 3.295 11.6531 3.4325 11.8663 3.61813C12.9663 3.54938 13.4475 4.32625 13.8531 5.06187C14.1281 5.55687 14.4306 6.24437 14.4856 6.91812C14.5269 7.34437 14.5063 7.84625 14.5613 8.34813C14.63 8.98063 14.7744 9.58562 14.6025 10.1219C14.5337 10.3487 14.3688 10.555 14.2244 10.8025C13.4131 12.2462 12.5056 14.1712 11.4056 15.1544ZM7.55562 7.46125C7.5075 7.62625 7.29437 7.61937 7.26687 7.805V13.6694C7.49375 13.5731 7.7825 13.6556 7.98187 13.7106C8.34625 13.4631 8.3875 12.9681 8.61437 12.6106C8.91 12.15 9.37062 11.9025 10.0512 11.8131C10.0787 10.8712 9.9275 9.75062 10.3469 9.20062C10.2094 8.85687 10.0444 8.54062 10.0512 8.05938C10.1612 7.8875 10.395 7.8325 10.5188 7.68125C10.1406 7.54375 10.0031 7.695 9.67312 7.54375C9.39812 7.43375 9.295 7.02125 9.08188 6.95937C8.62813 6.82187 8.16062 7.23437 7.63812 7.09C7.65187 7.02812 7.83062 6.87 7.63812 6.88375C7.61062 7.0625 7.54187 7.2275 7.55562 7.46125ZM7.26687 20.6406C7.2325 20.7781 7.12937 20.8606 7.095 20.9844C6.91625 21.6856 7.28062 22.325 7.26687 22.9644C7.24625 23.4731 6.9575 23.975 6.96438 24.4837C6.75125 24.5662 6.62063 24.69 6.6275 24.9031C6.64125 25.1369 6.875 25.1644 6.97125 25.3294V31.1112C6.84738 31.2181 6.74592 31.3485 6.67276 31.4948C6.59959 31.6411 6.55617 31.8005 6.545 31.9637C6.47625 32.5687 6.51063 33.6412 6.545 34.4525C6.5725 34.9337 6.5725 35.3462 6.66875 35.635C6.47625 35.9787 6.29062 36.3225 6.11875 36.6937C7.07437 36.7419 7.18437 35.9512 7.93375 35.8C8.34625 35.47 8.69 35.0231 9.03375 34.6656C9.15063 34.5419 9.33625 34.4044 9.41187 34.2875C9.79687 33.655 9.50813 32.665 9.71438 31.7506C10.1269 30.9669 10.285 29.9287 10.3881 28.8356C10.395 28.65 10.1681 28.6912 10.1406 28.54C10.5531 28.3131 10.3125 27.8594 10.1819 27.4812C10.065 27.1375 9.86562 26.7731 9.96875 26.2987C9.99625 26.1612 10.2437 25.9962 10.3125 25.7487C10.45 25.0956 10.0169 24.9237 9.88625 24.5594C9.61125 23.7962 10.065 23.2531 10.1406 22.5381C10.12 22.38 9.955 22.38 9.93437 22.2356C10.3194 21.775 9.74875 21.1425 9.63875 20.9294C9.72125 20.9087 9.91375 20.9844 9.9275 20.8881C9.80375 20.7575 9.72125 20.5925 9.68 20.3794C9.67312 20.2075 9.845 20.2075 9.80375 20.0012C9.59063 19.5475 9.19187 19.2931 8.84125 19.0319C8.28454 18.6066 7.76057 18.14 7.27375 17.6362C7.22562 18.695 7.46625 19.7125 7.26687 20.6406Z" fill="white"></path></svg> 